<svg width="24" height="26" viewBox="0 0 24 26" fill="none" xmlns="http://www.w3.org/2000/svg">
<path d="M23.9997 13.2722C23.9997 12.2654 23.918 11.5307 23.7412 10.7688H12.2446V15.313H18.9929C18.8569 16.4423 18.1222 18.1429 16.4895 19.2857L16.4666 19.4379L20.1016 22.2539L20.3535 22.279C22.6663 20.1429 23.9997 17.0001 23.9997 13.2722Z" fill="#4285F4"/>
<path d="M12.2447 25.2452C15.5508 25.2452 18.3263 24.1568 20.3535 22.2793L16.4896 19.286C15.4556 20.0071 14.0678 20.5105 12.2447 20.5105C9.00664 20.5105 6.25836 18.3745 5.27868 15.4221L5.13508 15.4343L1.35534 18.3595L1.30591 18.4969C3.31949 22.4969 7.45556 25.2452 12.2447 25.2452Z" fill="#34A853"/>
<path d="M5.27886 15.4218C5.02036 14.6599 4.87076 13.8436 4.87076 13.0001C4.87076 12.1565 5.02036 11.3402 5.26526 10.5783L5.25841 10.416L1.43131 7.44385L1.30609 7.50341C0.476196 9.16329 0 11.0273 0 13.0001C0 14.9728 0.476196 16.8367 1.30609 18.4966L5.27886 15.4218Z" fill="#FBBC05"/>
<path d="M12.2447 5.49004C14.544 5.49004 16.095 6.48323 16.9794 7.31322L20.4351 3.93905C18.3128 1.96626 15.5508 0.755371 12.2447 0.755371C7.45556 0.755371 3.31949 3.50365 1.30591 7.50362L5.26508 10.5785C6.25836 7.62612 9.00664 5.49004 12.2447 5.49004Z" fill="#EA4335"/>
</svg>
