<svg width="10" height="14" viewBox="0 0 10 14" fill="none" xmlns="http://www.w3.org/2000/svg">
<path d="M3.35277 0.55067C2.76698 -0.0351191 1.81746 -0.0351191 1.23167 0.55067C0.645908 1.13646 0.645895 2.08598 1.23167 2.67176L5.5598 6.99989L1.23167 11.328C0.645888 11.9138 0.645888 12.8633 1.23167 13.4491C1.81747 14.0348 2.76703 14.0349 3.35277 13.4491L8.50511 8.29676C8.59846 8.23804 8.6875 8.16906 8.76878 8.08778C9.06879 7.78776 9.21456 7.39207 9.20726 6.99891C9.21411 6.60636 9.06827 6.21158 8.76878 5.912C8.68741 5.83063 8.59858 5.7608 8.50511 5.70204L3.35277 0.55067Z" fill="#4C6D1E"/>
</svg>
