<svg width="25" height="24" viewBox="0 0 25 24" fill="none" xmlns="http://www.w3.org/2000/svg">
<path d="M12.5569 0.000244304C0.508524 -0.0653456 -5.07797 13.0931 5.87911 18.9385C5.68643 19.6252 4.64189 23.3573 4.60007 23.6505C4.57028 23.8798 4.73918 24.072 5.01302 23.9736C5.40876 23.9162 9.59897 20.8714 10.3243 20.3427C27.6987 22.4939 31.1198 0.825772 12.5569 0.000244304Z" fill="#3D1D1C"/>
<path d="M6.33254 13.1146C6.30904 14.0569 4.90702 14.0606 4.88215 13.1146V8.6582H3.75069C2.81355 8.6336 2.81164 7.21437 3.75069 7.18921H7.46399C8.40168 7.21494 8.40277 8.63247 7.46399 8.6582H6.33254V13.1146ZM12.4271 13.7177C12.1016 13.8952 11.4719 13.852 11.3626 13.4898L11.0035 12.5173H8.79222L8.43284 13.4904C8.32406 13.852 7.69411 13.8955 7.36889 13.7177C7.16883 13.6224 6.9767 13.36 7.19698 12.6524L8.93161 7.92964C9.28662 6.96106 10.5074 6.95682 10.8646 7.93049L12.5984 12.6513C12.819 13.3603 12.6269 13.6227 12.4271 13.7177ZM16.092 13.7216H13.7654C13.3823 13.7216 13.0704 13.4132 13.0704 13.0341V7.93925C13.0953 6.95201 14.5255 6.9489 14.5509 7.93925V12.3462H16.092C17.0073 12.3697 17.0092 13.6976 16.092 13.7216ZM21.7687 13.1568C21.7042 13.7999 20.8305 14.0368 20.4719 13.5048L18.7714 11.1738L18.5197 11.4342V13.0708C18.496 14.0581 17.0942 14.0617 17.0691 13.0711V7.93925C17.0942 6.95116 18.4938 6.94918 18.5195 7.93925V9.55158L20.5427 7.45864C20.7854 7.20391 21.2073 7.25876 21.444 7.5132C21.6903 7.7552 21.7436 8.19681 21.4973 8.44559L19.8447 10.1549L21.6296 12.6012C21.7457 12.7595 21.7958 12.9597 21.7687 13.1568Z" fill="#FFE812"/>
<path d="M9.17383 11.1886H10.6223L9.89807 9.06006L9.17383 11.1886Z" fill="#3D1D1C"/>
</svg>
