<svg width="10" height="14" viewBox="0 0 10 14" fill="none" xmlns="http://www.w3.org/2000/svg">
<path d="M3.35311 0.550552C2.76741 -0.0351585 1.81782 -0.0350009 1.23202 0.550552C0.646235 1.13634 0.646235 2.08586 1.23202 2.67165L5.56014 6.99977L1.23202 11.3279C0.646235 11.9137 0.646235 12.8632 1.23202 13.449C1.81781 14.0347 2.76735 14.0348 3.35311 13.449L8.50546 8.29665C8.59871 8.23796 8.68793 8.16886 8.76913 8.08766C9.0688 7.78784 9.21375 7.39261 9.20663 6.99977C9.21366 6.60697 9.06883 6.21163 8.76913 5.91188C8.68775 5.8305 8.59893 5.76069 8.50546 5.70192L3.35311 0.550552Z" fill="#91C84F"/>
</svg>
