<svg width="10" height="14" viewBox="0 0 10 14" fill="none" xmlns="http://www.w3.org/2000/svg">
<path d="M3.35376 0.55067C2.76797 -0.0351191 1.81747 -0.0351191 1.23169 0.55067C0.646197 1.13643 0.646143 2.08604 1.23169 2.67176L5.55981 6.99989L1.23169 11.328C0.646175 11.9138 0.646165 12.8634 1.23169 13.4491C1.81747 14.0349 2.76797 14.0349 3.35376 13.4491L8.50512 8.29676C8.59852 8.23804 8.68747 8.16907 8.7688 8.08778C9.06859 7.78798 9.21434 7.39277 9.20727 6.99989C9.21437 6.60697 9.06862 6.21182 8.7688 5.912C8.68734 5.83057 8.59869 5.76082 8.50512 5.70204L3.35376 0.55067Z" fill="#F6FFEF"/>
</svg>
