<svg width="9" height="14" viewBox="0 0 9 14" fill="none" xmlns="http://www.w3.org/2000/svg">
<path d="M5.85475 0.439342C6.44054 -0.146447 7.39006 -0.146447 7.97585 0.439342C8.56146 1.02514 8.56157 1.9747 7.97585 2.56044L3.64772 6.88856L7.97585 11.2167C8.56149 11.8025 8.56157 12.752 7.97585 13.3378C7.39011 13.9235 6.44055 13.9234 5.85475 13.3378L0.702409 8.18544C0.60903 8.12672 0.520044 8.05774 0.438737 7.97645C0.138723 7.67643 -0.00703485 7.28075 0.000260808 6.88758C-0.00659989 6.49496 0.13915 6.10027 0.438737 5.80067C0.520169 5.71924 0.608866 5.6495 0.702409 5.59071L5.85475 0.439342Z" fill="#F6FFEF"/>
</svg>
