<svg width="10" height="14" viewBox="0 0 10 14" fill="none" xmlns="http://www.w3.org/2000/svg">
<path d="M6.64722 0.550665C7.233 -0.0351141 8.18253 -0.0351208 8.76831 0.550665C9.35401 1.13645 9.35405 2.086 8.76831 2.67176L4.44019 6.99988L8.76831 11.328C9.35403 11.9138 9.35403 12.8633 8.76831 13.4491C8.18254 14.0349 7.23301 14.0348 6.64722 13.4491L1.49488 8.29676C1.4015 8.23803 1.31251 8.16907 1.2312 8.08777C0.931405 7.78797 0.785658 7.39277 0.792727 6.99988C0.78564 6.60698 0.931389 6.21181 1.2312 5.91199C1.31264 5.83056 1.40133 5.76082 1.49488 5.70203L6.64722 0.550665Z" fill="#91C84F"/>
</svg>
